PathFileType	4	(X/Y/Z)	Run_200 02
DataRate	CameraRate	NumFrames	NumMarkers	Units	OrigDataRate	OrigDataStartFrame	OrigNumFrames
100	100	6	42	mm	100	208	128
Frame#	Time	LASI			RASI			LPSI			RPSI			RTH1			RTH2			RTH3			LTH1			LTH2			LTH3			RTB1			RTB2			RTB3			LTB1			LTB2			LTB3			RCAL			RTOE			RMT5			LCAL			LTOE			LMT5			LACR			RACR			CLAV			C7			RUA1			RUA2			RUA3			RLEL			RMEL			LUA1			LUA2			LUA3			LLEL			LMEL			RFAsuperior			RFAradius			RFAulna			LFAsuperior			LFAradius			LFAulna			
		X1	Y1	Z1	X2	Y2	Z2	X3	Y3	Z3	X4	Y4	Z4	X5	Y5	Z5	X6	Y6	Z6	X7	Y7	Z7	X8	Y8	Z8	X9	Y9	Z9	X10	Y10	Z10	X11	Y11	Z11	X12	Y12	Z12	X13	Y13	Z13	X14	Y14	Z14	X15	Y15	Z15	X16	Y16	Z16	X17	Y17	Z17	X18	Y18	Z18	X19	Y19	Z19	X20	Y20	Z20	X21	Y21	Z21	X22	Y22	Z22	X23	Y23	Z23	X24	Y24	Z24	X25	Y25	Z25	X26	Y26	Z26	X27	Y27	Z27	X28	Y28	Z28	X29	Y29	Z29	X30	Y30	Z30	X31	Y31	Z31	X32	Y32	Z32	X33	Y33	Z33	X34	Y34	Z34	X35	Y35	Z35	X36	Y36	Z36	X37	Y37	Z37	X38	Y38	Z38	X39	Y39	Z39	X40	Y40	Z40	X41	Y41	Z41	X42	Y42	Z42	

192	3.32	692.75436	1017.783826	-439.453223	694.543818	1001.185159	-175.231686	523.647919	1029.706033	-361.778261	522.925098	1026.942665	-262.453144	601.737902	801.568438	-133.928698	674.433705	698.173003	-154.824241	605.055052	580.436889	-180.468601	657.7538050000001	825.158367	-486.193615	758.178675	715.26409	-460.623698	738.487119	592.769412	-438.762867	554.1734310000001	366.650583	-236.56236	488.287092	363.852397	-171.469073	400.595028	298.802556	-232.383338	779.368874	363.204459	-351.807269	724.637214	286.398567	-419.071796	737.13983	213.108706	-345.936843	247.539532	343.128216	-242.56304	289.310069	120.925859	-247.422328	248.569927	162.278391	-166.53631	598.175971	95.032494	-337.799612	827.782807	72.546069	-321.906692	776.3808	56.931778	-414.052554	684.678182	1461.652674	-501.796212	701.539498	1492.69115	-170.311401	746.589018	1415.902386	-305.650568	628.0971500000001	1503.008804	-333.233576	652.562868	1424.309785	-79.39439299999999	579.754039	1355.468592	-86.712372	616.624363	1306.854064	-37.079773	582.942653	1209.975743	5.475715	553.347449	1190.012001	-68.42213099999999	611.786238	1394.839094	-577.703793	542.1308330000001	1338.590301	-533.545201	519.09889	1278.786768	-587.687064	487.852812	1200.948889	-611.614077	477.263786	1197.438896	-535.642542	686.232312	1178.61415	-2.602216	825.2203950000001	1139.20892	-64.55713299999999	799.043635	1075.721068	-41.391537	580.657462	1138.078602	-612.291734	712.231372	1060.884562	-544.79535	673.1257000000001	1007.522328	-572.071497	
193	3.33	690.311495	1013.381386	-441.136603	693.311926	993.41858	-175.22722	521.059963	1025.57775	-362.525509	521.641844	1018.967666	-262.609146	605.957042	794.774032	-134.104058	680.455026	694.00314	-154.462319	615.5364510000001	573.837128	-182.622696	654.0980520000001	821.726916	-486.292109	755.802643	712.5892689999999	-461.470395	737.405964	589.7638940000001	-440.154773	568.367567	365.037455	-238.078181	502.838121	362.335633	-172.110739	413.578469	300.000272	-233.267309	770.455232	359.592939	-352.35199	712.549749	284.640221	-419.279437	722.312279	211.076817	-346.221179	259.16633	346.551616	-243.596295	302.60128	123.753118	-244.869655	264.822013	167.153614	-165.442364	578.587386	95.49836500000001	-338.048964	808.443232	71.473513	-322.469003	756.399524	55.954659	-414.323815	684.733641	1454.429083	-503.715999	699.370449	1488.089527	-170.349693	746.262881	1410.633821	-305.558831	628.567832	1498.609586	-335.065986	649.114956	1418.669961	-80.227609	575.90998	1349.326318	-89.04741300000001	612.394093	1300.527415	-39.228717	576.609946	1204.007739	2.336966	547.9104170000001	1184.369278	-71.65467	616.107431	1381.121125	-580.7447100000001	545.283277	1324.048186	-539.473079	526.901419	1263.038306	-592.834696	498.486303	1184.789514	-615.936974	484.860377	1180.952259	-540.8080650000001	679.0845389999999	1169.40677	-3.302183	818.07052	1125.738817	-62.812146	789.256383	1063.270877	-39.840297	592.755959	1124.145743	-614.403774	724.197998	1050.782702	-543.178134	687.053649	996.498262	-571.298991	
194	3.34	688.048755	1009.910189	-442.597583	691.86001	986.575238	-174.80387	518.636886	1022.437397	-363.059759	520.1365960000001	1011.911884	-262.345067	609.348295	789.289184	-134.487092	686.703909	690.791591	-154.060975	625.876109	569.735264	-184.054755	648.994651	817.79147	-485.970731	752.275227	709.946114	-462.04125	731.980964	585.3455709999999	-440.965688	583.4780459999999	364.045706	-239.24314	518.574909	361.23736	-172.845854	428.142599	300.81072	-234.104344	760.589662	354.869277	-354.185819	698.5807600000001	281.704326	-419.795505	706.899057	208.175303	-346.802507	271.726939	348.17919	-244.473285	318.753915	125.602786	-243.420892	283.516027	170.313454	-163.928755	558.952329	95.97216	-338.273261	788.922846	70.389055	-323.064742	736.3213929999999	55.251012	-414.789068	684.512544	1448.152211	-505.132838	697.4701260000001	1484.196131	-170.679138	745.761423	1406.104853	-305.499864	628.926585	1494.819089	-336.533193	645.495937	1414.303478	-81.401206	572.190949	1344.522157	-92.014466	607.799506	1295.761773	-41.645897	570.1813529999999	1199.080593	-1.358032	542.21858	1179.863805	-75.359719	621.173086	1368.522546	-582.8497149999999	549.304308	1309.973036	-545.524238	536.066609	1247.871683	-597.584102	510.694358	1168.883778	-619.892343	494.078745	1164.669086	-545.643919	671.435551	1160.676712	-4.406246	810.201116	1111.891367	-60.862062	778.337114	1050.742689	-38.116697	606.403902	1110.988453	-615.4978159999999	737.188676	1041.0164	-540.845105	702.0160980000001	985.921018	-570.100675	
195	3.35	686.156648	1007.104017	-443.437846	690.445817	981.502111	-174.358143	516.56901	1019.982901	-362.971871	518.665557	1006.616246	-262.057682	611.2976190000001	785.056424	-135.568321	693.179126	688.546263	-153.670633	636.447169	567.50699	-184.67335	643.81739	814.6557790000001	-485.975953	746.921442	706.286604	-463.232541	722.478214	580.331813	-441.310851	599.387068	363.66411	-240.039241	535.105943	360.719907	-173.87151	444.036531	301.235584	-234.920186	749.761612	349.824388	-356.731582	683.658484	278.510956	-420.56164	690.986403	205.295742	-348.035026	285.244429	347.970177	-245.393272	337.801524	126.362775	-242.601467	303.845009	171.678517	-162.711536	539.2410620000001	96.456318	-338.594711	769.15748	69.649809	-323.598257	716.203162	55.04527	-415.506916	684.452938	1442.71322	-506.105953	695.868387	1481.100661	-171.134768	745.147969	1402.339518	-305.436799	628.86653	1491.579026	-337.623286	641.753776	1411.154772	-82.825067	568.565712	1341.081822	-95.498161	602.746491	1292.565162	-44.178515	563.673375	1195.425231	-5.487367	536.580019	1176.843504	-79.54816099999999	626.350517	1358.056762	-583.3473750000001	554.548534	1297.124382	-551.062763	546.548093	1234.051319	-601.6507350000001	524.628841	1153.862329	-623.427595	505.044797	1149.368914	-550.028945	663.492769	1152.966313	-6.172366	801.511252	1098.092847	-58.890138	766.31956	1038.587475	-36.484298	621.644659	1099.318995	-615.321153	751.250193	1032.23823	-537.6783380000001	718.097577	976.41731	-568.356359	
196	3.36	684.682965	1004.921105	-443.672859	689.144033	978.7979769999999	-174.158241	514.922902	1018.123439	-362.257549	517.306254	1003.686934	-262.016259	611.8235550000001	782.050311	-137.716997	699.8550289999999	687.5430239999999	-153.270033	647.571795	566.355843	-184.505875	639.816412	813.125328	-486.52931	740.1083630000001	701.929385	-465.021444	711.649541	576.2085499999999	-441.759257	615.938988	363.933434	-240.51411	552.035604	360.919891	-175.093017	461.036807	301.148399	-235.66639	737.730414	345.437197	-359.229089	668.421995	276.055041	-421.35204	674.667771	203.311811	-350.056739	299.78	345.997135	-246.329442	359.452919	125.980485	-241.959129	325.3523	171.242333	-162.154105	519.411712	96.826483	-338.979731	749.234435	69.26357	-324.088167	696.147478	55.029799	-416.319682	684.906787	1438.157819	-506.817249	694.396272	1478.96249	-171.51194	744.5099310000001	1399.545143	-305.290077	628.475356	1489.108839	-338.537161	638.103074	1409.081527	-84.283648	564.925165	1338.874623	-99.15223400000001	597.197665	1290.731811	-46.766611	557.0701769999999	1193.139218	-9.789821	531.258109	1175.395678	-84.123243	630.594065	1350.125151	-582.117919	560.786247	1285.845293	-555.060401	557.927624	1222.216693	-604.7472289999999	540.062194	1140.517384	-626.346646	517.0239759999999	1135.878561	-553.701765	655.473969	1146.707897	-8.587248000000001	791.950813	1084.817455	-57.118789	753.234822	1027.301367	-35.253502	638.068479	1089.602905	-613.964625	766.218271	1025.155898	-533.593117	735.232536	968.7112509999999	-565.896202	
197	3.37	683.547062	1003.500609	-443.634146	687.929285	978.365788	-174.114129	513.625004	1016.997009	-361.251531	516.035312	1003.033078	-262.131116	611.536771	780.277104	-140.751018	706.629687	688.060843	-152.767614	659.247765	566.003684	-183.767846	636.821946	812.8551639999999	-487.4172	732.755858	698.071069	-466.728988	701.868183	573.641338	-442.715515	632.944389	364.858084	-240.71633	569.09451	361.783075	-176.026763	478.991105	300.412321	-236.333539	724.3395410000001	342.133102	-361.174181	652.995705	274.60247	-422.007324	657.9112730000001	202.317591	-352.428161	315.204105	342.319833	-247.094442	383.248879	124.634809	-241.603518	347.975757	169.155026	-162.142343	499.427696	97.01034799999999	-339.266787	729.332075	69.11313199999999	-324.630597	676.199299	54.926031	-417.036184	685.890884	1434.770977	-507.398376	692.891212	1477.898711	-171.729355	743.9102329999999	1397.931936	-305.015487	628.062046	1487.673348	-339.46695	634.78802	1408.020402	-85.588553	561.198477	1337.91469	-102.62799	591.233744	1290.103191	-49.477844	550.324198	1192.275877	-13.989632	526.160306	1175.470821	-88.818539	633.32539	1344.552311	-579.961227	567.241386	1276.14773	-556.61146	569.4607150000001	1212.743282	-606.630662	556.239383	1129.611707	-628.311255	529.0360930000001	1124.802273	-556.285906	647.340428	1141.977853	-11.303112	781.528394	1072.521391	-55.789217	739.085731	1017.338306	-34.764402	654.85531	1082.152477	-611.779702	781.72641	1020.553328	-528.633743	753.178799	963.576986	-562.5513560000001	
